<svg viewBox="0 0 72 72" xmlns="http://www.w3.org/2000/svg"><ellipse cx="46.5" cy="39.5" fill="#fcea2b" rx="17.5" ry="17.5" transform="matrix(.7071 -.7071 .7071 .7071 -14.3112 44.4497)"/><path d="m47.5607 54.7028c-.789.789-1.6092 1.527-2.4482 2.231 4.9292.3899 9.9915-1.289 13.762-5.0594 6.8342-6.8342 6.8342-17.9146 0-24.7487-.1168-.1168-.2441-.2156-.3634-.3284.3704 10.0546-3.2747 20.2298-10.9504 27.9055z" fill="#f1b31c"/><ellipse cx="19" cy="54" fill="#fcea2b" rx="8" ry="8" transform="matrix(.7071 -.7071 .7071 .7071 -32.6188 29.2513)"/><path d="m19.4849 60.9498c-.3607.3607-.7357.6981-1.1192 1.0199 2.2534.1782 4.5675-.5892 6.2912-2.3129 3.1242-3.1242 3.1242-8.1895 0-11.3137-.0534-.0534-.1116-.0985-.1661-.1501.1693 4.5965-1.497 9.248-5.0059 12.7568z" fill="#f1b31c"/><ellipse cx="18" cy="21" fill="#fcea2b" rx="11" ry="11" transform="matrix(.7071 -.7071 .7071 .7071 -9.5772 18.8787)"/><path d="m18.6667 30.556c-.496.496-1.0115.9598-1.5389 1.4023 3.0984.2451 6.2804-.8102 8.6504-3.1802 4.2958-4.2958 4.2958-11.2606 0-15.5563-.0734-.0734-.1535-.1355-.2284-.2064.2328 6.3201-2.0584 12.7159-6.8831 17.5406z" fill="#f1b31c"/><g style="fill:none;stroke:#000;stroke-linecap:round;stroke-linejoin:round;stroke-miterlimit:10;stroke-width:2"><circle cx="19" cy="54" r="8"/><circle cx="46.5" cy="39.5" r="17.5"/><circle cx="18" cy="21" r="11"/></g></svg>